# xmcd CD database file
#
# Track frame offsets:
#	232
#	12492
#	23682
#	31492
#	40575
#	55655
#	72152
#	85720
#	98530
#	125180
#	140197
#	152810
#	167232
#	176057
#	191442
#	203792
#	216520
#	227737
#
# Disc length: 3190 seconds
#
# Revision: 0
# Processed by: cddbd v1.4PL0 Copyright (c) Steve Scherf et al.
# Submitted via: CDex 1.50
#
DISCID=fb0c7312
DTITLE=LONNIE DONEGAN - Gamlin Man
DYEAR=1900
DGENRE=Country
TTITLE0=Lost John
TTITLE1=Bring a little Water, Silvie
TTITLE2=Don´t you rock me Daddy-O
TTITLE3=Cumberland Cup
TTITLE4=Gamblin man
TTITLE5=Puttin on the Style
TTITLE6=My Dixie Darling
TTITLE7=Jack O`Diamonds
TTITLE8=Lonnies Skiffle Party
TTITLE9=Tom Dooley
TTITLE10=Does your chewing gum
TTITLE11=Battle of New Orleans
TTITLE12=San Miguel
TTITLE13=My old Man is a Dustman
TTITLE14=Lively
TTITLE15=Have a drink on me
TTITLE16=Michael row the boat ashore
TTITLE17=Pick a Bale of Cotton
EXTD=
EXTT0=
EXTT1=
EXTT2=
EXTT3=
EXTT4=
EXTT5=
EXTT6=
EXTT7=
EXTT8=
EXTT9=
EXTT10=
EXTT11=
EXTT12=
EXTT13=
EXTT14=
EXTT15=
EXTT16=
EXTT17=
PLAYORDER=
